<svg width="117" height="35" viewBox="0 0 117 35" fill="none" xmlns="http://www.w3.org/2000/svg">
<path d="M108.83 14V11.4683H108.046V10.908H110.245V11.4683H109.473V14H108.83ZM110.564 14V10.908H111.186L112.344 12.4436H112.054L113.179 10.908H113.801V14H113.158V11.6177L113.415 11.6758L112.224 13.2114H112.141L110.991 11.6758L111.207 11.6177V14H110.564Z" fill="white"/>
<path d="M46.5864 28.13C47.6223 28.13 48.5387 27.9408 49.3356 27.5623C50.1324 27.1638 50.7401 26.5662 51.1584 25.7693V27.7714H55.342V11.4555H50.8596V20.9881C50.8596 21.9244 50.5807 22.6814 50.0229 23.2592C49.4651 23.817 48.7479 24.0959 47.8713 24.0959C46.9948 24.0959 46.2776 23.817 45.7198 23.2592C45.1619 22.6814 44.883 21.9244 44.883 20.9881V11.4555H40.4006V21.3467C40.4006 23.3787 40.9286 25.0222 41.9844 26.2773C43.0602 27.5125 44.5942 28.13 46.5864 28.13Z" fill="white"/>
<path d="M58.6181 9.99124H63.1005V5.50883H58.6181V9.99124ZM58.6181 27.7714H63.1005V11.4555H58.6181V27.7714Z" fill="white"/>
<path d="M68.3529 27.7714H72.8353V15.3402H76.3316V11.4555H72.8353V11.2164C72.8353 9.76214 73.682 9.03499 75.3753 9.03499C75.6542 9.03499 75.9829 9.06487 76.3614 9.12464V5.29965C75.9032 5.20004 75.3753 5.15024 74.7777 5.15024C72.7456 5.15024 71.1618 5.67817 70.0263 6.73402C68.9107 7.78988 68.3529 9.28401 68.3529 11.2164V11.4555H65.6037V15.3402H68.3529V27.7714Z" fill="white"/>
<path d="M78.6372 27.7714H83.1196V18.9859C83.1196 17.7707 83.4583 16.8344 84.1356 16.177C84.8129 15.4996 85.6995 15.1609 86.7952 15.1609H88.1997V11.2762H87.2434C86.2473 11.2762 85.3608 11.4654 84.5838 11.844C83.8268 12.2026 83.2391 12.8899 82.8208 13.9059V11.4555H78.6372V27.7714Z" fill="white"/>
<path d="M92.7042 34.4054C95.6925 34.4054 97.854 32.7021 99.1888 29.2955L106.181 11.4555H101.37L97.5154 21.9443L93.6605 11.4555H88.8494L95.2742 27.7714L94.9753 28.4587C94.7363 28.9966 94.4275 29.4748 94.049 29.8931C93.6704 30.3115 93.0429 30.5207 92.1663 30.5207C91.4492 30.5207 90.7718 30.421 90.1343 30.2218V33.8974C90.473 34.0767 90.8615 34.2062 91.2998 34.2859C91.758 34.3656 92.2261 34.4054 92.7042 34.4054Z" fill="white"/>
<path d="M26.3827 10.8852C26.1563 10.6651 25.8385 10.5651 25.5276 10.6163C25.2161 10.6672 24.9471 10.8628 24.8026 11.1434C24.3056 12.1089 23.6744 12.9961 22.9317 13.7805C23.0057 13.2139 23.043 12.6439 23.043 12.0724C23.043 10.9759 22.896 9.84742 22.606 8.71805C21.6526 5.00853 19.1524 1.87144 15.7467 0.111205C15.4502 -0.0419942 15.0969 -0.0366153 14.8052 0.125549C14.5135 0.287779 14.3224 0.585213 14.2963 0.917908C14.0308 4.28895 12.2944 7.35586 9.52969 9.33424C9.4931 9.3606 9.45678 9.38729 9.42045 9.41386C9.34521 9.46891 9.27429 9.52097 9.20802 9.56467C9.19766 9.57157 9.18737 9.57861 9.17727 9.58585C7.43849 10.8308 6.00378 12.4903 5.02808 14.3854C4.03663 16.3131 3.53394 18.3818 3.53394 20.5337C3.53394 21.6299 3.68089 22.7583 3.97076 23.8879C5.50042 29.8417 10.8583 33.9999 17.0003 33.9999C24.4252 33.9999 30.4658 27.9589 30.4658 20.5337C30.4658 16.872 29.0157 13.4454 26.3827 10.8852V10.8852Z" fill="#FF5555"/>
<circle cx="16" cy="20" r="4" fill="white"/>
</svg>
