<svg width="32" height="32" viewBox="0 0 32 32" fill="none" xmlns="http://www.w3.org/2000/svg">
<path d="M17.519 14.2513H15.8852C15.3438 14.2513 14.9049 14.6902 14.9049 15.2316C14.9049 15.773 15.3438 16.2119 15.8852 16.2119H16.5387C17.0801 16.2119 17.519 16.6507 17.519 17.1921C17.519 17.7335 17.0801 18.1724 16.5387 18.1724H14.9049M16.212 13.5978V14.2513M16.212 18.1724V18.8259M20.1331 16.2119H20.1396M12.2908 16.2119H12.2974M9.67675 13.7285L9.67675 18.6952C9.67675 19.4272 9.67675 19.7933 9.81921 20.0728C9.94452 20.3188 10.1445 20.5187 10.3904 20.644C10.67 20.7865 11.036 20.7865 11.768 20.7865L20.6559 20.7865C21.3879 20.7865 21.7539 20.7865 22.0335 20.644C22.2795 20.5187 22.4794 20.3188 22.6047 20.0728C22.7472 19.7933 22.7472 19.4273 22.7472 18.6952V13.7285C22.7472 12.9965 22.7472 12.6305 22.6047 12.3509C22.4794 12.1049 22.2795 11.905 22.0335 11.7797C21.7539 11.6372 21.3879 11.6372 20.6559 11.6372L11.768 11.6372C11.036 11.6372 10.67 11.6372 10.3904 11.7797C10.1445 11.905 9.94452 12.1049 9.81921 12.3509C9.67675 12.6305 9.67675 12.9965 9.67675 13.7285ZM20.4599 16.2119C20.4599 16.3923 20.3136 16.5386 20.1331 16.5386C19.9526 16.5386 19.8063 16.3923 19.8063 16.2119C19.8063 16.0314 19.9526 15.8851 20.1331 15.8851C20.3136 15.8851 20.4599 16.0314 20.4599 16.2119ZM12.6176 16.2119C12.6176 16.3923 12.4713 16.5386 12.2908 16.5386C12.1104 16.5386 11.9641 16.3923 11.9641 16.2119C11.9641 16.0314 12.1104 15.8851 12.2908 15.8851C12.4713 15.8851 12.6176 16.0314 12.6176 16.2119Z" stroke="#FF5555" stroke-width="1.30704" stroke-linecap="round" stroke-linejoin="round"/>
<circle cx="16.212" cy="16.212" r="15.3578" stroke="#FF5555" stroke-width="0.653521"/>
</svg>
